<?xml version="1.0" encoding="UTF-8"?>
<!DOCTYPE svg PUBLIC "-//W3C//DTD SVG 1.1//EN" "http://www.w3.org/Graphics/SVG/1.1/DTD/svg11.dtd">
<svg xmlns="http://www.w3.org/2000/svg" version="1.1" width="61px" height="52px" style="shape-rendering:geometricPrecision; text-rendering:geometricPrecision; image-rendering:optimizeQuality; fill-rule:evenodd; clip-rule:evenodd" xmlns:xlink="http://www.w3.org/1999/xlink">
<g><path style="opacity:1" fill="#2399ee" d="M 48.5,0.5 C 52.677,3.84373 56.3437,7.67706 59.5,12C 56.9801,15.015 53.9801,17.515 50.5,19.5C 48.8235,18.8166 48.1568,17.4832 48.5,15.5C 45.8806,15.7683 43.3806,15.435 41,14.5C 40.5026,11.854 40.3359,9.1873 40.5,6.5C 43.1667,6.5 45.8333,6.5 48.5,6.5C 48.5,4.5 48.5,2.5 48.5,0.5 Z"/></g>
<g><path style="opacity:0.994" fill="#0d63d1" d="M 11.5,5.5 C 15.2693,5.24401 18.9359,5.57734 22.5,6.5C 21.5536,20.1303 21.2203,33.797 21.5,47.5C 20.5,47.5 19.5,47.5 18.5,47.5C 18.6665,37.4944 18.4998,27.4944 18,17.5C 16.3005,16.5939 14.4672,16.2606 12.5,16.5C 12.7852,18.288 12.4519,19.9547 11.5,21.5C 10.4777,21.1445 9.81103,20.4778 9.5,19.5C 11.1765,18.8166 11.8432,17.4832 11.5,15.5C 12.675,15.719 13.675,15.3857 14.5,14.5C 13.2643,12.6889 13.2643,10.8556 14.5,9C 13.9293,7.40088 12.9293,6.23421 11.5,5.5 Z"/></g>
<g><path style="opacity:0.994" fill="#1986e8" d="M 37.5,6.5 C 39.7471,7.906 40.0804,9.73933 38.5,12C 40.3188,23.7448 40.9854,35.5781 40.5,47.5C 38.8333,47.5 37.1667,47.5 35.5,47.5C 34.8333,34.8333 34.1667,22.1667 33.5,9.5C 34.2623,7.73758 35.5956,6.73758 37.5,6.5 Z"/></g>
<g><path style="opacity:1" fill="#2082d5" d="M 48.5,0.5 C 48.5,2.5 48.5,4.5 48.5,6.5C 45.8333,6.5 43.1667,6.5 40.5,6.5C 40.3359,9.1873 40.5026,11.854 41,14.5C 43.3806,15.435 45.8806,15.7683 48.5,15.5C 48.1568,17.4832 48.8235,18.8166 50.5,19.5C 50.189,20.4778 49.5223,21.1445 48.5,21.5C 47.5481,19.9547 47.2148,18.288 47.5,16.5C 45.5,16.5 43.5,16.5 41.5,16.5C 41.8276,27.0135 41.4942,37.3468 40.5,47.5C 40.9854,35.5781 40.3188,23.7448 38.5,12C 40.0804,9.73933 39.7471,7.906 37.5,6.5C 40.728,5.58627 44.0613,5.25293 47.5,5.5C 47.2155,3.58533 47.5489,1.91866 48.5,0.5 Z"/></g>
<g><path style="opacity:0.995" fill="#106cda" d="M 22.5,6.5 C 23.7095,6.93205 24.7095,7.59872 25.5,8.5C 24.5045,21.3226 24.1712,34.3226 24.5,47.5C 23.5,47.5 22.5,47.5 21.5,47.5C 21.2203,33.797 21.5536,20.1303 22.5,6.5 Z"/></g>
<g><path style="opacity:1" fill="#0652c9" d="M 11.5,5.5 C 12.9293,6.23421 13.9293,7.40088 14.5,9C 13.2643,10.8556 13.2643,12.6889 14.5,14.5C 13.675,15.3857 12.675,15.719 11.5,15.5C 11.8432,17.4832 11.1765,18.8166 9.5,19.5C 6.16667,17.1667 2.83333,14.8333 -0.5,12.5C -0.5,12.1667 -0.5,11.8333 -0.5,11.5C 3.46433,8.03713 7.29766,4.37046 11,0.5C 11.4935,2.13414 11.6602,3.80081 11.5,5.5 Z"/></g>
<g><path style="opacity:0.994" fill="#0e65c3" d="M 25.5,8.5 C 27.6943,10.2214 28.861,12.5547 29,15.5C 29.4998,26.1615 29.6665,36.8281 29.5,47.5C 27.8333,47.5 26.1667,47.5 24.5,47.5C 24.1712,34.3226 24.5045,21.3226 25.5,8.5 Z"/></g>
<g><path style="opacity:0.978" fill="#167de3" d="M 33.5,9.5 C 34.1667,22.1667 34.8333,34.8333 35.5,47.5C 33.8333,47.5 32.1667,47.5 30.5,47.5C 30.3335,36.495 30.5002,25.495 31,14.5C 31.3736,12.5087 32.207,10.842 33.5,9.5 Z"/></g>
</svg>
