<svg xmlns="http://www.w3.org/2000/svg" width="327" height="240" fill="none"><rect width="327" height="240" fill="#EE78A4" rx="8"/><g clip-path="url(#a)"><path fill="#C5D6EC" d="M244.578 143.535c1.7 1.623 3.359 1.967 4.773 1.945 2.451-.038 4.165-1.673 4.081-3.229-.063-1.174-.935-2.147-3.687-2.032 8.485-2.337 2.949-10.712-5.167-5.648 2.262-8.104-9.349-6.556-8.332 0-4.467-2.975-12.022 1.992-6.126 4.78-9.418 1.142-4.649 10.68 3.842 6.989 3.796 2.516 11.55 2.072 10.616-2.805ZM213.653 53.437c1.688-6.753 13.099-7.258 9.094.61 12.907-5.88 15.657 11.17.479 9.192 3.223 5.21-5.696 8.37-9 3.816-4.392 5.751-12.31 3.689-11.589-1.666-6.621 7.157-18.802 3.052-9.657-2.878-13.852.283-6.009-15.262 6.419-7.726-.101-4.441 7.781-5.698 9.876-1.467.668-1.217 3.665-1.35 4.378.119ZM139.617 75.762c-7.135-1.76-2.846-10.08 3.058-4.305 1.221-2.938 3.832-2.565 5.665-1.53 3.264-3.957 9.108-2.226 7.93 2.436 6.73-2.85 7.74 8.296-1.534 5.385-.842 2.27-3.131 3.08-5.207 2.262-.491 1.44-4.155 1.074-4.361-.34-2.674 2.778-8.168 1.638-8.73-.418-.28-1.025.519-3.245 3.179-3.49ZM102.254 51.597c-11.52 1.933-10.8-12.357 1.502-6.846.378-6.168 10.26-8.893 10.076-2.72 5.177-6.068 15.129-6.823 17.767-2.926 1.755 2.591.522 4.966-3.485 6.054 3.892-.408 4.468 1.907 4.536 2.322.66 4.015-8.677 6.586-15.599 2.756-2.686 7.923-14.761 10.253-14.797 1.36ZM85.777 165.019c-17.508.751-8.906-14.698 0-9.926 1.2-8.726 13.505-9.348 12.511-.75 1.792-6.619 14.2-6.339 14.38.773 1.096-1.214 1.832-1.765 4.497-1.779 3.823-.019 4.941 1.177 4.964 5.82 2.817-4.814 11.428-2.975 12.698.272 2.544 6.501-8.159 13.58-15.687 6.757-1.414 7.355-13.451 8.695-13.007 1.439-13.772 20.217-34.429 6.793-20.356-2.606Z"/><path fill="#6984F8" d="M202.797 127.713c-2.343-4.945-3.474-9.045-4.672-14.698-.99-4.23 3.568-6.14 4.606-1.914.614 3.895 1.441 7.069 2.733 8.676.088.111.27.069.286-.071.269-2.339-2.741-9.766-1.363-16.523.551-4.68 5.563-4.62 5.33-.259-.427 5.375.212 10.52 1.581 14.3.063.175.327.117.313-.069-.506-6.803.185-13.03 2.505-17.387 1.801-3.197 5.277-1.727 4.571 1.317-2.095 8.785-2.104 11.643-1.364 17.087.022.163.261.154.269-.011.39-8.31 1.39-10.77 3.561-13.581 2.46-3.152 5.481-.824 4.185 2.529-1.001 1.853-1.518 3.421-2.236 5.752a17.075 17.075 0 0 0-.567 7.377c.375 2.698.536 5.467.378 7.06 2.312-1.63 4.666-2.874 7.141-3.001 3.874-.172 4.522 3.172 1.242 4.139-3.35.836-6.331 3.297-9.056 6.883-2.533 2.821-8.345 4.866-16.249 6.417l-4.962 1.799c-14.133 4.023-17.057-11.911-3.044-14.794l4.812-1.028Z"/><path stroke="#323232" stroke-linecap="round" stroke-miterlimit="10" stroke-width=".324" d="M228.903 128.741c.599-1.008 1.601-1.587 2.916-1.83M220.387 106.439c-.01 1.52 2.335 2.214 4.407-2.111M213.484 101.627c.224.854.455 1.701 1.232 1.918.287.081.595.017.846-.143 1.763-1.121 1.943-2.827 1.841-4.638M204.813 102.805s.268 2.957 1.868 2.436c1.866-.606 1.746-4.874 1.584-4.853M201.321 109.16c.751 4.65-1.633 5.944-2.721 3.249"/><path fill="#FA6602" d="M206.359 143.369c5.442-2.227 2.9-15.523-2.903-16.458 0 0-34.328 3.254-51.926 5.551-15.711 1.532-12.242 30.217 2.684 27.517l52.145-16.61Z"/><path fill="#8C35A5" d="M209.294 135.86c-10.91 2.914-35.083 7.948-59.228 12.552-4.149.694-3.896-7.27.957-7.27 20.942-.998 43.134-3.598 57.98-7.065.144.543.234 1.145.291 1.783Z"/><path fill="#6984F8" d="M107.574 73.922c-2.037-9.671-11.025-8.178-8.987 1.494 5.814 22.521 13.399 39.909 20.796 45.212 10.584 7.454 18.619-3.825 11.959-12.652-1.268-1.68-3.835-3.001-5.687-4.337-8.273-5.975-11.379-12.655-18.081-29.716Z"/><path fill="#6984F8" d="M103.977 75.721c.847-9.857-10.483-10.83-11.33-.973-.794 23.248 2 42.061 8.444 49.216 9.265 10.109 22.428.112 17.919-10.221-.858-1.967-2.311-3.603-4.037-4.877-8.144-6.016-11.429-14.902-10.996-33.145Z"/><path stroke="#323232" stroke-linecap="round" stroke-miterlimit="10" stroke-width=".324" d="M108.917 102.488c-3.374-5.063-4.82-12.619-4.963-21.862"/><path fill="#4166FF" d="M108.273 70.052c-.33-4.22-.246-5.727-2.246-7.72a.42.42 0 0 0-.618.024l-.86 1.027c-1.628-.86-.913-7.428-7.262-10.253-2.446-.826-3.85 2.286-3.298 3.385 2.044 4.065 2.984 10.019 2.696 14.695.185 1.112 1.337 1.292 1.497.11.365-1.227.79-2.088 1.802-1.999 2.391.424 2.969 3.605 3.542 6.29.345 4.038 5.07 2.956 5.473.382.746-4.77-.726-5.94-.726-5.94Z"/><path stroke="#323232" stroke-linecap="round" stroke-miterlimit="10" stroke-width=".324" d="m101.986 67.34 2.148-3.318M107.749 67.605c-.395 1.775-1.582 2.312-3.993 1.574M107.944 69.767c-.871 1.866-2.365 1.814-4.188.97"/><path fill="#4166FF" d="m105.095 77.422-.393-3.703c1.354-3.42.09-5.948-2.252-8.108l-.464.554c-1.628-.86-1.677-8.536-7.947-10.291-2.643-.463-4.396.974-4.95 2.98-.326 1.185-.148 2.46.405 3.558 2.044 4.065 3.376 8.087 3.088 12.763.185 1.112 1.337 1.292 1.497.11.365-1.227.79-2.088 1.801-1.999 2.392.424 2.625 3.02 3.838 5.415 1.478 2.528 4.531 2.578 5.278.082a3.47 3.47 0 0 0 .099-1.361Z"/><path stroke="#323232" stroke-linecap="round" stroke-miterlimit="10" stroke-width=".324" d="M104.585 73.922c-1.841 2.054-4.264.921-6.05-3.52-.133-.327-.237-.665-.352-1-.87-2.533-2.778-5.17-5.667-7.908-1.288-1.339-2.251-2.57-2.526-3.575"/><path stroke="#323232" stroke-linecap="round" stroke-linejoin="round" stroke-miterlimit="10" stroke-width=".324" d="m99.452 72.292-.102-2.977 3.1-3.704c2.135 2.075 3.557 4.38 2.135 8.311"/><path stroke="#323232" stroke-linecap="round" stroke-linejoin="round" stroke-miterlimit="10" stroke-width=".324" d="M105.157 70.929c-.339 2.275-2.454 2.74-3.617 1.438-.662-.74-1.351-1.595-2.19-3.052M105.258 78.09l-.45-4.852M94.632 56.176c1.013.337 1.869 1.029 2.521 1.62 4.074 3.694 2.561 6.876 4.833 8.37"/><path fill="#E19615" d="M112.99 142.064c-7.853-5.952-14.196-12.765-18.444-20.774-2.31-9.73 8.945-22.176 16.529-17.651 4.261-5.599 8.393-7.467 12.397-5.6l19.216 20.55c12.845 16.25-16.853 39.726-29.698 23.475Z"/><path stroke="#4166FF" stroke-linecap="round" stroke-miterlimit="10" stroke-width=".454" d="M119.582 112.314c-1.245-2.05-5.181-4.75-8.507-8.675"/><path fill="#323232" d="M139.35 111.213c-7.585 2.677-12.876.846-15.835-5.573-3.683-10.727.622-20.7 4.342-30.73 2.184-7.215 4.836-15.185-.684-16.991-3.651-1.298-6.852 3.026-8.884 6.784-3.726 8.182-6.529 13.38-8.531 14.875l-.774-2.091c3.178-2.014 6.793-15.303 13.534-20.592 7.197-5.252 11.863-.04 11.419 6.09-.501 11.038-10.934 18.066-7.993 37.04 1.497 6.766 5.209 9.38 10.617 8.985 2.133-.156 4.2-.896 5.93-2.153 5.982-4.348 7.447-12.036 6.137-21.777-.82-8.422-2.846-14.852-2.31-20.039.406-3.92 2.754-7.33 5.888-9.463 1.965-1.337 4.295-2.058 6.669-2.156 7.682-.318 10.168 5.89 11.738 13.6 1.285 6.312 5.399 11.712 11.194 14.526 4.523 2.196 8.296 2.937 12.342 1.609 9.99-2.754 16.648-10.672 13.572-23.287-2.463-9.863-1.621-19.835 4.51-25.787 3.148-3.045 6.469-4.762 9.905-5.592 3.045-.911 4.016 1.174.912 1.875-3.585 1.462-6.649 3.403-9.071 5.93-4.122 5.182-4.757 10.952-3.314 22.839 1.893 16.061-4.09 23.03-16.61 25.847-4.387.8-7.792.655-11.644-.759-6.745-2.474-11.532-8.485-12.904-15.537-1.783-9.158-4.879-15.17-12.775-12.505-7.11 2.252-9.149 10.538-6.677 18.72 5.57 21.677.512 32.22-10.703 36.312Z"/><path fill="#FA6602" d="M113.127 142.747c-3.673-16.54 15.474-34.547 29.561-26.335l15.575 10.773c6.352 4.393 6.109 13.86-.461 17.921l-18.557 11.472a11.396 11.396 0 0 1-14.275-1.865l-11.373-11.134a1.685 1.685 0 0 1-.47-.832Z"/><path fill="#6984F8" d="M139.193 137.211c.167 3.166 1.33 6.963 1.134 11.759-.13 3.192 2.635 5.738 5.803 5.33l15.45-1.987c6.573-5.025 9.732-23.292 5.247-30.264-3.111-4.546-7.222-7.36-11.059-9.101-8.148-3.698-17.896.253-20.644 8.769a13.088 13.088 0 0 0-.649 3.886c-2.72-.349-3.003 3.119-2.256 6.547.764 3.5 2.062 7.082 6.333 4.717a.428.428 0 0 1 .641.344Z"/><path fill="#E19615" d="M132.091 134.8c.759-.14-.932-2.405 1.577-2.377.351.12.719-.336.188-.917-2.436-1.18-3.602.775-3.169 2.267.178.613.509 1.129 1.404 1.027Z"/><path stroke="#323232" stroke-linecap="round" stroke-miterlimit="10" stroke-width=".324" d="M133.745 128.923s1.175-2.668 3.086.072c.236.338.406.729.444 1.14.141 1.513-1.194 1.945-1.003 2.817.248 1.131 1.094.947 1.094.947"/><path fill="#fff" d="M166.566 131.161c-.074.88-.071 2.089-.04 3.414.044 1.922-1.004 3.739-2.736 4.574-1.239.596-2.785 1.005-4.431 1.306-4.645.849-9.987-.109-11.735-2.702-1.65-2.777-1.492-4.611 1.534-4.951 5.307-.876 11.18-1.377 17.408-1.641Z"/><path stroke="#6984F8" stroke-miterlimit="10" stroke-width=".324" d="M149.933 132.207c-.182 3.355-.144 5.267.964 8.549M154.888 141.834c-.253-4.132-.414-7.795-.419-10.673M159.47 141.142c-.15-3.981-.319-7.827-.764-9.827M163.14 139.839c.082-2.633-.006-5.712-.246-9.189"/><path stroke="#6984F8" stroke-miterlimit="10" stroke-width=".324" d="M146.438 136.907c7.89-.752 15.421-1.541 20.742-2.562"/><path fill="#4166FF" d="M183.819 192.908h-.004c-7.666-2.192-7.624-13.384-3.388-21.466 3.315-6.321 9.582-10.617 14.203-7.967 8.908 5.419-1.267 27.958-10.811 29.433Z"/><path fill="#6984F8" d="M198.394 169.963c1.612-.621 3.187-2.064 4.745-3.868 1.139-1.319 2.68-2.232 4.394-2.544 2.281-.414 4.559-1.126 6.836-2.032a6.84 6.84 0 0 1 3.154-.464l8.033.73c3.475 1.443 2.091 6.406-2.52 7.134l-10.308 1.35c-7.942 12.464-22.297 8.955-14.334-.306Z"/><path fill="#323232" d="m217.749 149.14-7.944 40.68 20.363-3.025 9.747-40.375c.066-.274-.074-.623-.316-.766-.465-.274-1.017-.528-1.617-.644a2.188 2.188 0 0 0-.61-.019l-16.64 1.464a3.337 3.337 0 0 0-2.983 2.685Z"/><path stroke="#4166FF" stroke-linecap="round" stroke-miterlimit="10" stroke-width=".324" d="m216.727 165.82 3.002-14.604c.456-2.54 1.068-2.688 1.912-2.804M226.808 147.558l12.501-1.218"/><path fill="#6984F8" d="M182.625 162.309c-15.74-7.368-25.592 13.678-9.851 21.046l15.163 11.165c6.201 4.565 10.575 5.03 18.386 4.289 8.264-.803 17.001-2.502 26.006-4.707 3.35-1.065 5.169-3.88 5.398-8.511 5.909-3.729 4.723-7.555.677-11.42 3.74-2.842 3.014-5.861-1.655-9.037l7.933-9.037c3.908-5.75-2.328-9.622-7.105-4.829-3.116 2.727-7.048 7.579-11.033 12.574a2.807 2.807 0 0 1-1.55.899c-4.494.629-8.992 1.592-13.493 2.738l-13.107 2.484-15.769-7.654Z"/><path stroke="#323232" stroke-linecap="round" stroke-miterlimit="10" stroke-width=".324" d="M220.256 177.754c2.219-1.548 4.892-2.757 7.858-3.747 2.014-.672 3.779-1.936 5.013-3.663l3.233-4.524M228.71 183.255c2.588-2.786 5.599-5.663 9.079-8.643M211.501 167.479l2.206-.546M230.44 190.255c1.422-1.152 3.823-2.64 6.372-4.18M241.706 158.795c-3.461 1.516-5.381.025-3.446-3.906.545-1.108 1.364-2.082 2.429-2.705 2.25-1.315 4.648-.865 4.648 1.622"/><path fill="#FA6602" d="M194.63 163.475c-4.251-2.168-10.788 1.302-13.673 7.962-.158.366-.365.713-.53 1.077a28.04 28.04 0 0 0-1.73 4.753c-1.81 6.86-.814 13.945 5.118 15.641-1.094.17-2.176.064-3.223-.377-17.943-6.127-36.272-17.502-55.186-36.93-2.362-2.23-2.701-6.067-1.357-9.23.021-.063.047-.123.076-.182.039-.098.085-.191.132-.284.042-.093.089-.187.136-.276l.063-.114c.038-.072.076-.144.123-.216.047-.085.098-.166.149-.251.05-.084.106-.169.165-.254 1.865-2.807 5.291-4.575 9.93-3.146 0 0 14.027 5.671 30.835 12.268 4.658 1.829 28.764 8.86 28.972 9.559Z"/><path fill="#8C35A5" d="M180.427 172.514a28.04 28.04 0 0 0-1.73 4.753c-19.55-9.336-38.269-20.203-54.648-30.896 0-.004-.004-.004-.004-.004a3.48 3.48 0 0 1 .08-.178c.039-.098.085-.191.132-.284.042-.093.089-.187.136-.276l.063-.114c.038-.072.076-.144.123-.216.047-.085.098-.166.149-.251.05-.084.106-.169.161-.254h.004c21.068 10.082 41.373 20.758 55.534 27.72Z"/><path stroke="#323232" stroke-linecap="round" stroke-miterlimit="10" stroke-width=".324" d="M124.045 153.337c-.819-1.878-.946-4.058-.121-6.655M125.151 144.427c3.593-4.228 8.532-3.754 14.137-.953M162.331 152.668l6.797 2.425"/><path fill="#323232" d="m92.512 89.689-.187-6.274a.148.148 0 0 1 .199-.141c3.727 1.402 6.436 3.025 9.311 2.378 2.879-.647 4.88-3.908 7.845-6.593a.148.148 0 0 1 .234.051l1.325 3.495a.142.142 0 0 1-.008.128c-1.832 3.092-3.013 7.398-7.218 8.625-4.449 1.297-6.003-.036-11.392-1.534a.147.147 0 0 1-.109-.135Z"/><path fill="#007E05" d="M134.475 125.603c3.548.078 3.645 1.777 4.964 5.625.937 3.042 3.114 3.172 2.272.094a9.618 9.618 0 0 0-.323-.948c-.697-1.79-3.984-10.361 1.3-13.962 5.116-3.486 13.359 9.135 19.949 12.36 8.204 5.305 15.023.526 6.859-5.23-1.896-1.287-3.511-2.56-4.08-3.786 12.057 8.881 23.745 1.994 15.395-1.052 11.033-.979 13.389-6.078 7.656-6.52 12.047-6.216 18.698-17.682 13.381-29.834-4.007-8.37-11.55-8.158-10.241 1.297 1.209 7.424 1.027 13.459-1.911 16.741a10.092 10.092 0 0 0-.093-6.138c-.724-1.157-1.287-.987-1.638.208a8.782 8.782 0 0 1-.716 1.72c-1.149 2.11-2.231 3.242-3.144 3.106 2.796-5.785 4.324-11.553 2.02-17.273-1.43-2.936-4.226-2.83-4.577-.107-.131 1.02-.282 2.042-.592 3.024-1.215 3.856-3.093 6.397-5.64 7.879 4.494-6.23 7.047-17.793-.338-25.1-5.329-5.347-13.021-.66-11.166 6.12 3.002 7.66 3.659 12.435 2.184 16.333-.986-1.281-.24-3.254-2.717-6.536-1.649-1.77-3.057-1.208-3.105.782-.008.323.038.647.099.965.901 4.666-.085 7.774-2.355 9.82 1.986-5.278 1.984-9.42-.991-11.86-3.281-2.373-5.685-1.109-5.141 2.716.052 2.969-1.416 4.896-2.683 6.717-1.72 2.471-4.404 4.044-7.377 4.524-4.91.793-9.707 4.706-6.108 8.816-2.947 1.987-3.147 4.295-1.435 6.827-4.859 2.216.95 6.482.292 12.672Z"/><path stroke="#323232" stroke-linecap="round" stroke-miterlimit="10" stroke-width=".324" d="M157.891 115.501c1.346 1.218 4.76 2.117 6.158 1.21.239-.155.342-.452.211-.705-.364-.702-1.807-1.583-3.857-2.957a2.747 2.747 0 0 1-.941-1.084l-.195-.405M148.042 109.038c1.597.487 2.924 1.136 3.387 2.306a.644.644 0 0 1-.461.855c-1.125.267-2.567.063-4.286-.554M145.518 100.866c1.912-.644 3.543-1.8 4.637-3.93 1.531-3.035 3.055-2.03 2.672.105-.284 1.309-1.268 2.65-2.62 4.008M157.638 101.552c1.163-1.083 1.956-2.759 3.1-4.73a.318.318 0 0 1 .499-.045c.866.96.528 2.653-.516 4.775M163.639 106.279l5.208-4.856a.519.519 0 0 1 .845.223c.632 1.883-.38 3.847-2.129 5.847M167.963 96.967c1.743-2.76 2.794-6.303 3.309-10.455.368-1.93 1.37-1.889 1.934 0 .247 1.387-.155 3.316-.78 5.431M176.016 102.814c1.095-1.016 2.179-2.214 3.256-3.567a.098.098 0 0 1 .167.025c.85 2.292-.202 4-1.537 5.622M172.129 115.666c2.079.704 5.21 1.253 6.798-1.065a.287.287 0 0 0 .026-.288c-.513-1-2.372-1.397-5.361-1.289M182.765 108.731c1.579-.467 3.483-1.653 6.069-4.342.738-.785 1.399-.45 1.068.94-.511 1.665-1.403 3.033-2.57 4.187M193.771 100.554c.607-1.663 1.311-2.872 2.517-3.42a.205.205 0 0 1 .251.07c.633.957.293 2.134-.392 3.35"/></g><defs><clipPath id="a"><path fill="#fff" d="M49.5 3.26h227v234.45h-227z"/></clipPath></defs></svg>