<svg xmlns="http://www.w3.org/2000/svg" width="328" height="137" fill="none"><rect width="327" height="137" x=".5" fill="#000" fill-opacity=".01" rx="16"/><path fill="#C4C6CC" d="M162.692 123.363c21.649 0 39.199-3.206 39.199-7.162s-17.55-7.163-39.199-7.163c-21.648 0-39.198 3.207-39.198 7.163 0 3.956 17.55 7.162 39.198 7.162Z"/><path fill="#A366E8" d="M228.042 52.7a2.792 2.792 0 0 1-.239 2.267 9.414 9.414 0 0 1-3.14 2.266 18.336 18.336 0 0 1-4.004 1.304c-.9.19-1.812.32-2.73.385h-.216a4.958 4.958 0 0 0-.341-1.813 7.786 7.786 0 0 0 2.901-1.576 2.772 2.772 0 0 0 .864-2.323c.226.034.456.034.683 0a9.49 9.49 0 0 0 1.74-.635 10.79 10.79 0 0 1 2.616-1.03 1.748 1.748 0 0 1 1.866 1.156Z"/><path fill="#fff" d="M220.512 60.86a6.774 6.774 0 0 1-4.198 1.575l-.102-.102a4.665 4.665 0 0 0 1.501-3.4 4.958 4.958 0 0 0-.341-1.813 7.785 7.785 0 0 0 2.901-1.587 2.758 2.758 0 0 0 .864-2.323 1.864 1.864 0 0 0-.227-.68 2.488 2.488 0 0 0-1.934-1.133 6.082 6.082 0 0 0-2.275.317h-.137a13.498 13.498 0 0 0-3.332 1.473 8.594 8.594 0 0 0-1.957 1.689 7.108 7.108 0 0 0-1.706 3.275 4.903 4.903 0 0 0-.137 1.213h-.125a3.54 3.54 0 0 0-2.741 2.267v.124c-.114.411-.183.833-.205 1.258a7.307 7.307 0 0 0 .66 3.91 4.314 4.314 0 0 0 2.935 2.21l.068-.476c.202.413.462.795.773 1.134a4.722 4.722 0 0 0 3.345 1.473l.602.17a3.183 3.183 0 0 0 3.754.42 4.202 4.202 0 0 0 1.775-2.72c0-.227.079-.443.102-.67.091-.876.114-1.76.068-2.64v-.873c0-1.382 0-2.663.125-4l-.056-.091Z"/><path fill="#E2F77E" d="M221.774 23.528c.108-1.49-.03-2.986-.41-4.431-1.194-2.732-4.959-6.358-4.959-6.358l-.08.08c-.523.486-3.822 3.694-4.823 6.323a16.096 16.096 0 0 0-.705 4.17V52.44a8.315 8.315 0 0 0 2.343.601l.137.215a13.488 13.488 0 0 1 3.333-1.473h.136a6.08 6.08 0 0 1 2.275-.317 2.495 2.495 0 0 1 1.934 1.133c.119.21.196.44.227.68.226.034.457.034.683 0l-.08-.578s.182-20.842-.011-29.172Z"/><path fill="#A366E8" d="m213.095 53.04.137.215c-.73.441-1.389.987-1.957 1.621a7.109 7.109 0 0 0-1.706 3.276l-.216-.08a11.06 11.06 0 0 1-2.275-1.405 6.204 6.204 0 0 1-1.832-2.12 3.208 3.208 0 0 1-.068-2.73 2.27 2.27 0 0 1 2.275-1.27c.474.112.919.32 1.308.612.632.508 1.323.938 2.059 1.28a8.32 8.32 0 0 0 2.275.601Z"/><path fill="#2B0F3A" d="m207.498 67.728-.443.453a16.173 16.173 0 0 1-5.688 2.267 17.21 17.21 0 0 1-5.391 0v-.43a7.328 7.328 0 0 1 1.865-4.534c.25-.227 1.035-1.065 1.297-1.28v-.205h1.331a10.474 10.474 0 0 0 5.892-2.368h.102v.124c-.114.41-.183.833-.204 1.258a7.306 7.306 0 0 0 .659 3.91c.157.293.352.564.58.805Z"/><path fill="#000" d="M199.195 64v.204c-.262.215-1.047 1.053-1.297 1.28a7.327 7.327 0 0 0-1.865 4.534v.43c-1.138-.158-2.275-.374-3.413-.578h-.148a69.876 69.876 0 0 0 1.604-6.37h.114c1.645.348 3.323.516 5.005.5Z"/><path fill="#E2F77E" d="M204.45 97.467c-6.575.351-7.474 1.258-7.735 7.808-.342-6.55-1.252-7.446-7.826-7.718 6.563-.34 7.462-1.235 7.723-7.786.376 6.562 1.286 7.401 7.838 7.696Z"/><path fill="#A366E8" d="M195.589 45.628a84.757 84.757 0 0 1-1.582 17.839 64.114 64.114 0 0 1-1.603 6.37 57.486 57.486 0 0 1-17.211 27.2 51.29 51.29 0 0 1-5.073 3.898 37.432 37.432 0 0 1-7.439 4.068 61.106 61.106 0 0 1-7.269-4.023 53.796 53.796 0 0 1-5.176-3.785 54.38 54.38 0 0 1-17.847-27.914 65.006 65.006 0 0 1-1.49-6.8 62.195 62.195 0 0 1-.637-16.796c16.755 18.133 32.51 2.266 32.51 2.266 19.349 15.516 32.817-2.323 32.817-2.323Zm-4.983 10.733s-10.374 8.942-27.732-.896c0 0-15.06 9.135-27.914-.192 0 0 1.786 32.277 27.516 44.11a56.278 56.278 0 0 0 19.289-18.12 56.028 56.028 0 0 0 8.841-24.902ZM182.723 113.197s3.686-.396 3.686 2.584c0 2.981-3.572 2.879-3.572 2.879h-10.783v-5.327l6.29-.068 4.379-.068Z"/><path fill="#E2F77E" d="M162.874 55.465c17.358 9.838 27.732.896 27.732.896a56.018 56.018 0 0 1-8.831 24.927 56.283 56.283 0 0 1-19.299 18.14c-25.73-11.878-27.516-44.155-27.516-44.155 12.854 9.327 27.914.192 27.914.192Z"/><path fill="#2B0F3A" d="M178.481 109.514a29.13 29.13 0 0 1-.137 3.593v.124l-6.29.068v-.102c.121-1.224.151-2.455.091-3.683h6.336Z"/><path fill="#2B0F3A" d="M178.481 109.514h-6.336a24.838 24.838 0 0 0-1.138-6.313 8.705 8.705 0 0 1 5.688-2.969 28.787 28.787 0 0 1 1.786 9.282ZM154.4 103.462h.08c-.597 1.967-.952 4-1.058 6.052h-6.347a28.204 28.204 0 0 1 1.638-8.761h.079a4.444 4.444 0 0 1 2.935.578 6.886 6.886 0 0 1 2.673 2.131Z"/><path fill="#A366E8" d="M153.513 113.333v5.361H142.74s-3.594.102-3.594-2.879c0-2.98 3.685-2.584 3.685-2.584h4.38l6.302.102Z"/><path fill="#2B0F3A" d="M153.513 113.197v.136l-6.302-.068v-.158a28.944 28.944 0 0 1-.136-3.582h6.347c-.06 1.225-.03 2.452.091 3.672Z"/><path fill="#E2F77E" d="M156.595 37.219c-7.245.385-8.224 1.382-8.519 8.602-.387-7.208-1.377-8.194-8.634-8.489 7.246-.374 8.235-1.371 8.52-8.59.387 7.207 1.388 8.193 8.633 8.477Z"/><path fill="#2B0F3A" d="M129.261 65.167a10.98 10.98 0 0 1 0 4v.091a41.862 41.862 0 0 1-4.55-.635 15.5 15.5 0 0 1-2.616-.623 15.368 15.368 0 0 1-2.616-1.337 21.596 21.596 0 0 1-3.629-2.494v-.079a6.74 6.74 0 0 0 .751-.51 13.03 13.03 0 0 0 2.025-2.085 6.933 6.933 0 0 0 1.41-2.437h.171a11.914 11.914 0 0 0 7.587 3.604v.113a4.36 4.36 0 0 1 1.467 2.392Z"/><path fill="#fff" d="M118.467 56.304c0 .385-.126.782-.228 1.201-.02.05-.043.1-.068.148-.432 1.87-2.48 4.284-4.232 5.587 0 0 0 .057-.068.08l-.148.09h-.068a7.07 7.07 0 0 1-1.047.612 3.2 3.2 0 0 0 1.229 0 4.56 4.56 0 0 0 1.604-.555 6.48 6.48 0 0 0 .682-.465 12.62 12.62 0 0 0 1.877-1.96 6.455 6.455 0 0 0 1.263-2.177 2 2 0 0 0 .102-.623 2.473 2.473 0 0 0-.898-1.938Z"/><path fill="#fff" d="M120.389 39.157c-.626-1.134-2.275-1.134-3.618-.771-3.344.963-6.461 3.4-7.371 6.687a8.324 8.324 0 0 0-3.753-2.006 3.347 3.347 0 0 0-3.356.668 2.643 2.643 0 0 0-.33 2.596l-.193.068a3.949 3.949 0 0 0-1.206-.136 1.257 1.257 0 0 0-1.274 1.133 2.259 2.259 0 0 0 0 1.133c.083.255.198.499.341.726h-.057a1.905 1.905 0 0 0-2.138 0 2.131 2.131 0 0 0-.842 2.142c.078.371.233.723.455 1.031a2.282 2.282 0 0 0-1.49-.34 1.607 1.607 0 0 0-1.228.873 2.101 2.101 0 0 0 .181 1.87c.234.45.53.865.876 1.235l-.182.193a4.883 4.883 0 0 0 .888 3.513 9.01 9.01 0 0 0 2.752 2.482 15.794 15.794 0 0 0 4.277 1.859c1.333.328 2.7.492 4.073.487a11.03 11.03 0 0 0 3.878-.657 9.11 9.11 0 0 0 2.275-1.134c1.627-1.133 3.788-3.592 4.186-5.383l.069-.147a8.489 8.489 0 0 0 .273-1.916 5.15 5.15 0 0 0-.125-1.416 6.794 6.794 0 0 0-1.331-2.924 7.088 7.088 0 0 1-1.672-3.004c-.096-.86.052-1.729.426-2.51a4.65 4.65 0 0 1 1.689-1.91 26.842 26.842 0 0 0 2.685-1.666c.42-.312.729-.75.881-1.25.151-.5.137-1.035-.039-1.526Z"/><path fill="#000" d="M190.925 55.76a.674.674 0 0 0-.762.08 17.202 17.202 0 0 1-7.132 3.093c-4.22.873-11.08.873-19.816-4.08a.695.695 0 0 0-.693 0c-.148.09-14.788 8.784-27.164-.17a.682.682 0 0 0-1.081.59c0 .328 2.105 32.866 27.915 44.687a.67.67 0 0 0 .591 0 57.507 57.507 0 0 0 19.491-18.38 57.248 57.248 0 0 0 9.015-25.185.684.684 0 0 0-.364-.635Zm-28.46 42.84c-21.715-10.2-25.969-35.677-26.686-41.933 11.682 7.4 24.797.86 27.095-.397 8.998 4.998 16.107 4.953 20.475 4.023a20.096 20.096 0 0 0 6.393-2.493 55.915 55.915 0 0 1-8.924 23.53 56.16 56.16 0 0 1-18.353 17.27ZM139.419 38.012c6.825.283 7.61 1.009 7.963 7.843a.68.68 0 0 0 .682.646.672.672 0 0 0 .683-.646c.273-6.8 1.012-7.594 7.871-7.934a.68.68 0 0 0 0-1.348c-6.825-.284-7.61-1.009-7.962-7.843a.68.68 0 0 0-.683-.646.68.68 0 0 0-.682.646c-.273 6.8-1.013 7.593-7.872 7.933a.68.68 0 0 0-.648.68.678.678 0 0 0 .648.67Zm8.577-4.103a4.595 4.595 0 0 0 1.238 2.147 4.622 4.622 0 0 0 2.175 1.197 4.665 4.665 0 0 0-3.413 3.4 4.617 4.617 0 0 0-1.228-2.177 4.643 4.643 0 0 0-2.184-1.223 4.619 4.619 0 0 0 3.412-3.344ZM204.45 96.764c-6.245-.25-6.825-.85-7.178-7.05a.68.68 0 0 0-.682-.645.683.683 0 0 0-.683.646c-.25 6.222-.842 6.8-7.075 7.14a.688.688 0 0 0-.648.691.684.684 0 0 0 .659.669c6.234.26 6.825.85 7.167 7.072a.677.677 0 0 0 1.151.449.708.708 0 0 0 .214-.461c.25-6.21.853-6.8 7.086-7.15a.685.685 0 0 0 .649-.68.694.694 0 0 0-.66-.68Zm-7.792 3.581a4.147 4.147 0 0 0-2.867-2.833 4.174 4.174 0 0 0 2.833-2.856 4.125 4.125 0 0 0 2.923 2.81 4.167 4.167 0 0 0-2.844 2.879h-.045Z"/><path fill="#000" d="M228.69 52.473a2.391 2.391 0 0 0-.977-1.28 2.409 2.409 0 0 0-1.571-.374c-.708.112-1.39.35-2.013.702l-.797.374-.352.148-.523.215c0-2.675.182-21.069 0-28.753v-1.133a9.046 9.046 0 0 0-.444-3.536c-1.229-2.822-4.96-6.426-5.119-6.573a.613.613 0 0 0-.512-.148.636.636 0 0 0-.5.272c-.535.499-3.913 3.752-4.96 6.54a16.307 16.307 0 0 0-.75 4.408V51.33c-.351-.218-.69-.457-1.013-.714a4.056 4.056 0 0 0-1.592-.737c-.627-.1-1.27.004-1.832.299a2.925 2.925 0 0 0-1.285 1.333 3.866 3.866 0 0 0 .068 3.32 6.805 6.805 0 0 0 2.014 2.37c.704.533 1.467.986 2.275 1.348v.238a4.222 4.222 0 0 0-2.696 2.267 9.998 9.998 0 0 1-5.517 2.198c-.425.024-.85.024-1.274 0a20.816 20.816 0 0 1-4.391-.419 87.045 87.045 0 0 0 1.479-17.283.67.67 0 0 0-.467-.635.682.682 0 0 0-.762.238c0 .068-5.505 7.197-14.264 8.296-5.778.725-11.682-1.303-17.574-6.03a.697.697 0 0 0-.91 0c-.069.069-6.473 6.37-15.186 6.189-5.744-.102-11.25-2.947-16.346-8.455a.682.682 0 0 0-1.137.374 61.913 61.913 0 0 0 .523 16.297c-.754.105-1.516.131-2.275.08a11.212 11.212 0 0 1-7.087-3.344v-.385a3.787 3.787 0 0 0-2.081-3.468.482.482 0 0 0-.171 0 6.08 6.08 0 0 0-.125-.94 7.469 7.469 0 0 0-1.467-3.185 6.595 6.595 0 0 1-1.695-2.641 3.996 3.996 0 0 1 1.877-3.74c.341-.227.693-.42 1.046-.612a8.5 8.5 0 0 0 1.684-1.133 3.053 3.053 0 0 0 1.001-3.615c-.808-1.52-2.799-1.576-4.403-1.134a11.388 11.388 0 0 0-4.45 2.248 11.348 11.348 0 0 0-3.057 3.929 8.959 8.959 0 0 0-3.265-1.553 3.972 3.972 0 0 0-4.049.884 3.106 3.106 0 0 0-.66 2.267 3.618 3.618 0 0 0-.614 0 1.96 1.96 0 0 0-1.231.528 1.947 1.947 0 0 0-.6 1.194 2.94 2.94 0 0 0 0 .998 2.361 2.361 0 0 0-1.536.453 2.836 2.836 0 0 0-1.138 2.709 3.564 3.564 0 0 0-.489 0 2.279 2.279 0 0 0-1.729 1.258 2.756 2.756 0 0 0 .182 2.47c.184.345.401.672.649.975a5.504 5.504 0 0 0 1 4.012 9.588 9.588 0 0 0 2.947 2.675 16.315 16.315 0 0 0 4.459 1.938 17.55 17.55 0 0 0 4.231.578h.159a11.872 11.872 0 0 0 3.413-.556 4.219 4.219 0 0 0 2.446.748c.255 0 .51-.022.762-.068a5.702 5.702 0 0 0 1.706-.51 22.48 22.48 0 0 0 3.412 2.346l.433.25c.718.453 1.48.833 2.275 1.133.88.305 1.786.532 2.707.68 1.537.304 3.09.52 4.652.646h2.617a54.577 54.577 0 0 0 17.574 27.529 30.19 30.19 0 0 0-1.331 3.116 28.447 28.447 0 0 0-1.627 8.92 27.434 27.434 0 0 0 .091 3.048h-3.594a5 5 0 0 0-3.413.941 2.919 2.919 0 0 0-.966 2.267c-.016.444.061.887.226 1.3.164.414.412.789.729 1.102a5.052 5.052 0 0 0 3.265 1.134h10.829a.684.684 0 0 0 .682-.68v-5.282a.21.21 0 0 1 0-.17 24.591 24.591 0 0 1-.079-3.57 24.248 24.248 0 0 1 1.035-5.882c.182-.6.386-1.133.58-1.654a64.335 64.335 0 0 0 6.54 3.604.676.676 0 0 0 .296.068.727.727 0 0 0 .228 0 37.419 37.419 0 0 0 6.95-3.729c.193.487.364.963.5 1.405a24.204 24.204 0 0 1 1.138 6.143 24.89 24.89 0 0 1-.08 3.581.203.203 0 0 1 0 .17v5.361a.68.68 0 0 0 .683.68h10.76a5.027 5.027 0 0 0 3.265-1.133 3.2 3.2 0 0 0 .956-2.403 2.927 2.927 0 0 0-.967-2.267 4.906 4.906 0 0 0-3.413-.94h-3.651c.086-1.018.12-2.039.102-3.06a29.067 29.067 0 0 0-1.865-9.498 26.721 26.721 0 0 0-1.229-2.799 57.923 57.923 0 0 0 16.79-26.577c.989.182 2.002.363 3.037.51a24.09 24.09 0 0 0 3.082.227c.847.007 1.693-.065 2.526-.215a16.895 16.895 0 0 0 5.903-2.38s.057 0 .091-.068a4.08 4.08 0 0 0 2.275 1.065h.171c.102.125.205.26.318.374a5.395 5.395 0 0 0 3.834 1.689h.125a3.875 3.875 0 0 0 2.662 1.042 3.659 3.659 0 0 0 1.933-.532 4.86 4.86 0 0 0 2.071-3.151c.053-.243.091-.489.113-.737.1-.91.127-1.827.08-2.742v-.85c0-1.36 0-2.618.125-3.956 0-.612.091-1.224.148-1.87a19.065 19.065 0 0 0 3.606-1.269 10.676 10.676 0 0 0 3.412-2.505 3.51 3.51 0 0 0 .353-2.822Zm-128.742-5.02a.826.826 0 0 1 .114-.306.778.778 0 0 1 .557-.261 3.3 3.3 0 0 1 .91.102 8.7 8.7 0 0 0 2.355 2.561c.555.491 1.211.855 1.922 1.066.143.387.143.813 0 1.201a1.034 1.034 0 0 1-.819.6 1.446 1.446 0 0 1-.637-.18l-.182-.08a10.226 10.226 0 0 1-3.64-3.037l-.068-.102a4.072 4.072 0 0 1-.216-.306 1.679 1.679 0 0 1-.262-.567 1.774 1.774 0 0 1-.034-.691Zm-2.07 2.266a1.289 1.289 0 0 1 1.41 0l.08.102.068.091a11.196 11.196 0 0 0 3.936 3.4.276.276 0 0 0 0 .09 1.407 1.407 0 0 1 0 1.372 1.468 1.468 0 0 1-1.206.623 2.55 2.55 0 0 1-.808-.124 5.095 5.095 0 0 1-1.137-.612 8.66 8.66 0 0 1-2.491-2.528.752.752 0 0 0-.069-.136 1.97 1.97 0 0 1-.352-.782 1.48 1.48 0 0 1 .569-1.462v-.034Zm-2.742 4.76a1.538 1.538 0 0 1-.16-1.212.965.965 0 0 1 .695-.488c.337-.032.676.043.967.216a9.98 9.98 0 0 0 2.843 2.844c.357.24.738.442 1.138.601a.69.69 0 0 1 .08.521c-.034.288-.176.551-.399.737a1.81 1.81 0 0 1-1.638.08 6.123 6.123 0 0 1-1.729-1.134l-.113-.102c-.309-.27-.601-.557-.876-.861a4.395 4.395 0 0 1-.808-1.202Zm12.069 9.475a16.496 16.496 0 0 1-3.89-.487 15.243 15.243 0 0 1-4.084-1.814 8.498 8.498 0 0 1-2.548-2.266 4.522 4.522 0 0 1-.762-1.87l.08.068a7.26 7.26 0 0 0 2.138 1.45 3.81 3.81 0 0 0 1.297.25 2.843 2.843 0 0 0 1.627-.488 2.462 2.462 0 0 0 1.012-1.677 2.253 2.253 0 0 0 0-.385h.205a2.84 2.84 0 0 0 2.275-1.281 2.61 2.61 0 0 0 .341-1.655h.091a2.371 2.371 0 0 0 2.036-1.394 2.88 2.88 0 0 0 .193-1.813 3.13 3.13 0 0 0 .387-.204 2.317 2.317 0 0 0 .535-3.037 4.096 4.096 0 0 0-2.275-1.666.684.684 0 0 0-.915.727.67.67 0 0 0 .539.576 2.756 2.756 0 0 1 1.525 1.065.997.997 0 0 1-.125 1.235c-.455.318-1.138 0-2.15-.804a7.545 7.545 0 0 1-1.98-2.017 3.59 3.59 0 0 1-.147-.374 2.014 2.014 0 0 1 .193-1.927 2.768 2.768 0 0 1 2.684-.453 7.653 7.653 0 0 1 3.413 1.892.684.684 0 0 0 1.137-.306c.922-3.4 4.175-5.428 6.905-6.222.83-.238 2.366-.419 2.821.442a1.774 1.774 0 0 1-.682 1.95 7.286 7.286 0 0 1-1.456.929c-.387.215-.785.43-1.138.68a5.352 5.352 0 0 0-2.457 5.157 7.688 7.688 0 0 0 1.831 3.309 6.173 6.173 0 0 1 1.138 2.663c.095.405.129.821.102 1.236a7.668 7.668 0 0 1-.25 1.756.605.605 0 0 0 0 .148c-.353 1.541-2.275 3.808-3.856 4.93h-.057a8.558 8.558 0 0 1-2.093 1.031 11.173 11.173 0 0 1-3.64.646Zm8.236-.487a4.568 4.568 0 0 1-1.616.612c-.405.08-.823.08-1.228 0a7.01 7.01 0 0 0 1.046-.612h.069l.147-.091.069-.08c1.751-1.303 3.799-3.717 4.231-5.587.025-.048.048-.097.068-.147.103-.42.171-.816.228-1.201a2.465 2.465 0 0 1 .944 1.938 2 2 0 0 1-.102.623 6.457 6.457 0 0 1-1.297 2.12 12.67 12.67 0 0 1-1.922 1.983 6.58 6.58 0 0 1-.637.442Zm13.206 5.032c-1.138-.114-2.275-.284-3.833-.567a16.296 16.296 0 0 1-2.492-.612 12.635 12.635 0 0 1-2.047-1.02l-.444-.25a23 23 0 0 1-2.969-1.915h.057a13.393 13.393 0 0 0 2.218-2.244 9.413 9.413 0 0 0 1.138-1.756 12.739 12.739 0 0 0 7.03 3.184 3.57 3.57 0 0 1 1.251 1.995 8.384 8.384 0 0 1 .091 3.207V68.5Zm88.315-54.162a21.446 21.446 0 0 1 3.731 5.032c.292.973.404 1.99.33 3.003v1.133c.171 7.242 0 24.038 0 28.118a3.292 3.292 0 0 0-2.047-.918 5.709 5.709 0 0 0-2.014.295V14.337Zm-5.528 8.998c.046-1.337.268-2.663.66-3.944a17.473 17.473 0 0 1 3.515-4.918V51.09a.673.673 0 0 0 0 .26c-.82.286-1.616.638-2.378 1.054a.64.64 0 0 0-.159 0 7.316 7.316 0 0 1-1.683-.396l.045-28.674Zm-4.083 32.799a5.44 5.44 0 0 1-1.627-1.87 2.52 2.52 0 0 1-.08-2.153 1.558 1.558 0 0 1 1.57-.896c.369.087.715.253 1.012.488.68.537 1.421.994 2.207 1.36.403.17.817.31 1.24.419a8.714 8.714 0 0 0-.99.94 7.948 7.948 0 0 0-1.638 2.766 10.155 10.155 0 0 1-1.649-1.054h-.045Zm-54.6 61.846h-10.033a3.778 3.778 0 0 1-2.355-.782 1.859 1.859 0 0 1-.534-1.417 1.66 1.66 0 0 1 .511-1.314 3.31 3.31 0 0 1 2.105-.612h.375l10.01.09-.079 4.035Zm-.091-8.489a27.94 27.94 0 0 0 0 3.117h-4.926a29.38 29.38 0 0 1-.102-3.026 27.397 27.397 0 0 1 1.456-8.115 4.191 4.191 0 0 1 2.207.556c.88.393 1.658.983 2.275 1.722a25.482 25.482 0 0 0-.831 5.746h-.079Zm30.177 4.375a3.57 3.57 0 0 1 2.423.601 1.622 1.622 0 0 1 .512 1.314 1.846 1.846 0 0 1-.534 1.417 3.757 3.757 0 0 1-2.366.782h-10.136v-4.012l10.101-.102Zm-4.993-4.341a29.613 29.613 0 0 1-.103 3.038h-4.925a24.118 24.118 0 0 0-1.024-9.226 8.056 8.056 0 0 1 4.448-2.402 28.042 28.042 0 0 1 1.558 8.59h.046Zm13.946-39.893a56.647 56.647 0 0 1-17.063 26.94 51.832 51.832 0 0 1-4.994 3.853 40.024 40.024 0 0 1-7.029 3.842 64.16 64.16 0 0 1-6.928-3.854 57.776 57.776 0 0 1-5.107-3.74 53.382 53.382 0 0 1-17.62-27.54 64.741 64.741 0 0 1-1.479-6.686 65.342 65.342 0 0 1-.762-15.142c5.073 5.078 10.545 7.707 16.289 7.809 7.963.159 14.06-4.68 15.709-6.165 6.052 4.703 12.149 6.709 18.2 5.95a24.016 24.016 0 0 0 13.957-7.412 83.198 83.198 0 0 1-1.57 15.866c-.489 2.097-1.023 4.216-1.649 6.279h.046Zm3.662 0a42.621 42.621 0 0 1-2.15-.363c.478-1.654.91-3.4 1.263-5.066 1.071.204 2.154.345 3.242.42l-.341.34a7.703 7.703 0 0 0-2.059 4.703l.045-.034Zm5.847.136c-1.508.23-3.042.23-4.55 0a6.345 6.345 0 0 1 1.604-3.865l.546-.544c.284-.283.58-.6.728-.714v-.068h.91a11.85 11.85 0 0 0 5.05-1.552 7.718 7.718 0 0 0 .751 4.193c.076.154.163.302.262.442a15.33 15.33 0 0 1-5.346 2.142l.045-.034Zm12.422-6.902a.691.691 0 0 0-.558.623l-.182 2.868a9.765 9.765 0 0 0 .341 3.864.81.81 0 0 1 .069.148 4.132 4.132 0 0 1-2.059-1.134 4.047 4.047 0 0 1-1.138-2.924.679.679 0 0 0-.682-.68.685.685 0 0 0-.683.68 5.207 5.207 0 0 0 .262 1.87 3.305 3.305 0 0 1-1.138-.872 2.73 2.73 0 0 1-.466-.68 6.42 6.42 0 0 1-.591-3.548c.023-.385.096-.766.216-1.133a2.936 2.936 0 0 1 1.604-1.632c0 .25.091.487.147.725a.683.683 0 0 0 .842.465.657.657 0 0 0 .413-.314.669.669 0 0 0 .065-.514 4.36 4.36 0 0 1-.159-1.212 4.712 4.712 0 0 1 .113-1.065 6.53 6.53 0 0 1 1.559-2.97 8.035 8.035 0 0 1 1.854-1.598 13.39 13.39 0 0 1 3.174-1.405h.136a5.296 5.296 0 0 1 2.025-.295 1.779 1.779 0 0 1 1.399.771c.083.138.134.293.148.453a2.114 2.114 0 0 1-.671 1.723 7.097 7.097 0 0 1-2.662 1.383.717.717 0 0 0-.387.362.677.677 0 0 0 0 .533 4.1 4.1 0 0 1-.989 4.533 4.205 4.205 0 0 1-2.048 1.009l.046-.034Zm4.379 8.319a2.5 2.5 0 0 1-2.923-.329 2.337 2.337 0 0 1-.262-.329h.171a10.183 10.183 0 0 0 4.242-.929 3.164 3.164 0 0 1-1.228 1.587Zm1.57-3.31a8.89 8.89 0 0 1-5.108 1.258h-.159a9.818 9.818 0 0 1-.136-2.04h.193a10.719 10.719 0 0 0 5.301-1.224c.026.67.011 1.34-.046 2.006h-.045Zm0-3.547a9.002 9.002 0 0 1-5.324 1.405l.103-1.632a5.554 5.554 0 0 0 1.876-.997 8.952 8.952 0 0 0 3.413-.94c.045.725.023 1.439.023 2.164h-.091Zm.148-3.865a4.836 4.836 0 0 1-2.207 1.054c.32-.608.528-1.268.614-1.949a23.119 23.119 0 0 0 1.649-.227c.091.352.057.726.035 1.122h-.091Zm7.359-5.961a8.715 8.715 0 0 1-2.9 2.085c-1.234.56-2.528.979-3.857 1.247-.714.147-1.435.257-2.161.329a6.752 6.752 0 0 0-.125-.692 7.056 7.056 0 0 0 2.537-1.473 3.58 3.58 0 0 0 1.069-2.153h.171a8.214 8.214 0 0 0 1.512-.533l.342-.147.876-.397a5.032 5.032 0 0 1 1.547-.578 1.134 1.134 0 0 1 1.137.77c.163.505.142 1.05-.057 1.542h-.091Z"/><path fill="#000" d="M160.088 65.801a.697.697 0 0 0-.967 0l-6.825 7.152a.665.665 0 0 0 0 .94l6.825 6.8a.704.704 0 0 0 .967 0 .679.679 0 0 0 .205-.481.672.672 0 0 0-.205-.482l-6.336-6.29 6.336-6.675a.68.68 0 0 0 0-.964ZM168.63 65.801a.694.694 0 0 0-.967 0l-6.825 7.152a.669.669 0 0 0 0 .94l6.825 6.8a.685.685 0 0 0 1.161-.481.672.672 0 0 0-.205-.482l-6.257-6.29 6.336-6.675a.69.69 0 0 0-.068-.964ZM142.763 69.927a23.384 23.384 0 0 1-2.116-6.948.663.663 0 0 0-.242-.5.69.69 0 0 0-.805-.055.684.684 0 0 0-.295.748 24.65 24.65 0 0 0 2.275 7.355.677.677 0 0 0 .614.374.66.66 0 0 0 .296-.068.692.692 0 0 0 .273-.906ZM143.878 73.236a.692.692 0 0 0-1.096-.3.677.677 0 0 0-.201.73 16.58 16.58 0 0 0 1.945 4.217.697.697 0 0 0 .569.306.678.678 0 0 0 .569-1.054 15.835 15.835 0 0 1-1.786-3.899ZM147.314 80.467a.677.677 0 0 0-.364-.376.684.684 0 0 0-.91.874c.211.485.482.942.807 1.36a.653.653 0 0 0 .535.272.662.662 0 0 0 .421-.147.665.665 0 0 0 .113-.952 4.533 4.533 0 0 1-.602-1.031ZM149.85 83.923a.68.68 0 0 0-1.246.184.693.693 0 0 0 .074.519 17.096 17.096 0 0 0 2.036 2.64.67.67 0 0 0 .501.216c.167 0 .329-.06.455-.17a.664.664 0 0 0 .152-.743.664.664 0 0 0-.152-.22 15.621 15.621 0 0 1-1.82-2.426ZM110.401 59.647a4.983 4.983 0 0 1-3.776 1.553.718.718 0 0 0-.717.657.682.682 0 0 0 .176.487.681.681 0 0 0 .472.216h.273a6.404 6.404 0 0 0 4.619-1.983.682.682 0 0 0 .174-.773.68.68 0 0 0-.678-.413.68.68 0 0 0-.486.256h-.057ZM103.69 60.928a.679.679 0 0 0-.631.42.65.65 0 0 0 .15.733.656.656 0 0 0 .481.184.703.703 0 0 0 .682-.703.684.684 0 0 0-.682-.635ZM124.472 65.733a5.698 5.698 0 0 1-2.013-.827.68.68 0 0 0-.803-.045.676.676 0 0 0-.158 1c.06.075.136.135.222.178.758.494 1.603.84 2.491 1.02h.136a.693.693 0 0 0 .671-.555.676.676 0 0 0-.546-.77Z"/></svg>