<svg xmlns="http://www.w3.org/2000/svg" aria-hidden="true" fill="currentColor" height="24" viewBox="0 0 48 48" width="24" class="text-primary flex-shrink-0"><path d="M13.14 5.29c-2.74 0-5.24 2.65-6.84 7.28a36.08 36.08 0 00-1.78 11.72c0 10.66 3.79 19 8.62 19a5.74 5.74 0 004.45-2.59c2.58-3.33 4.18-9.62 4.18-16.41 0-10.65-3.77-19-8.63-19Zm-3.8 20.27h-.15a1 1 0 01-1-.84A25.73 25.73 0 018 18.4a1 1 0 011.08-.9 1 1 0 01.92 1.08 23.35 23.35 0 00.22 5.84 1 1 0 01-.88 1.14ZM18 35.7c1.78-16.48-6.73-21.7-9.6-23 1.28-3.4 3-5.43 4.76-5.43 3.13 0 6.63 7 6.63 17A34.24 34.24 0 0118 35.7ZM34.22 5.29c-3 0-5.63 3.06-7.21 8.4a37.7 37.7 0 00-1.42 10.6c0 10.66 3.79 19 8.63 19a4.75 4.75 0 002.72-.9c3.53-2.45 5.91-9.72 5.91-18.1 0-10.65-3.79-19-8.63-19Zm-3.84 21.59h-.15a1 1 0 01-1-.85 25.19 25.19 0 01-.23-6.31 1 1 0 011.1-.89 1 1 0 01.9 1.09 22.79 22.79 0 00.23 5.83 1 1 0 01-.85 1.13ZM37 39.56c3.28-19.49-5.54-24.75-7.94-25.8 1.28-4 3.23-6.47 5.14-6.47 3.13 0 6.63 7 6.63 17 .02 6.54-1.51 12.43-3.83 15.27Z"/></svg>