<svg xmlns="http://www.w3.org/2000/svg" aria-label="filledStar" fill="currentColor" height="24" role="img" viewBox="0 0 48 48" width="24" class="text-primary"><path d="m25.75 6.07 4.73 9.43A1.93 1.93 0 0032 16.55l10.56 1.51a1.92 1.92 0 011.09 3.28L36 28.68a1.91 1.91 0 00-.56 1.71l1.8 10.36a1.94 1.94 0 01-2.83 2l-9.45-4.89a2 2 0 00-1.82 0l-9.45 4.89a1.94 1.94 0 01-2.83-2l1.8-10.36a1.91 1.91 0 00-.56-1.71l-7.7-7.34a1.92 1.92 0 011.09-3.28l10.56-1.51a1.93 1.93 0 001.47-1.05l4.73-9.43a2 2 0 013.5 0Z"/></svg>