<svg xmlns="http://www.w3.org/2000/svg" width="40" height="40" fill="none"><circle cx="20" cy="20" r="20" fill="#111"/><mask id="a" maskUnits="userSpaceOnUse" x="0" y="0" width="40" height="40"><circle cx="20" cy="20" r="20" fill="#C1F5EF"/></mask><g clip-path="url(#clip0)" mask="url(#a)"><path d="M33.817 41.066c-.602-2.339-2.218-6.736-6.592-9.792-.475-.312-.95-.624-1.426-.905-.475-.748-.444-.966-.444-.998.032-.062.222-.28.825-.467.19-.063.38-.094.57-.156.634-.188 1.363-.375 2.06-.811 1.33-.842 2.155-2.402 2.25-4.21.063-1.06-.095-1.996-.507-3.618a2.36 2.36 0 00.982-1.341c.19-.78-.032-1.56-.57-2.12a9.299 9.299 0 01-1.616-2.09c-.222-.375-.54-1.092-.856-1.872-.127-.312-.222-.655-.317-.966 0-.032 0-.032-.032-.032v-.03a7.944 7.944 0 00-.507-1.155c-.444-.81-1.52-2.682-3.58-4.023-3.392-2.152-8.399-1.933-11.916.5-3.138 2.182-4.057 5.332-4.215 5.956-.76 3.119 0 6.144.76 9.106.064.219.127.468.19.686.413 1.591.793 3.462.698 5.209v.187c-.032.717-.095 1.466-.254 2.12-.57.313-1.14.655-1.68 1.03-4.373 3.056-6.02 7.453-6.59 9.792-.128.468 0 .967.284 1.341.286.375.76.593 1.268.593h29.757c.475 0 .95-.218 1.268-.593.221-.374.317-.873.19-1.34z" fill="#fff"/><path d="M32.58 41.378c-.538-2.183-2.059-6.237-6.115-9.075a10.508 10.508 0 00-1.616-.967.235.235 0 00-.064-.125c-.444-.654-.919-1.497-.634-2.276.19-.53.76-.936 1.616-1.217.19-.062.413-.124.634-.187.57-.156 1.173-.311 1.712-.655.982-.623 1.616-1.84 1.68-3.212.063-.936-.128-1.809-.54-3.524-.095-.312-.158-.593-.221-.81l.57-.188c.349-.093.602-.374.697-.717a.935.935 0 00-.253-.936c-.76-.78-1.395-1.56-1.838-2.37-.317-.53-.666-1.31-.92-2.058-.126-.343-.253-.687-.348-1.03a7.47 7.47 0 00-.412-.966c-.412-.718-1.363-2.402-3.169-3.556-2.979-1.87-7.384-1.684-10.49.468-2.756 1.934-3.58 4.71-3.707 5.24-.697 2.806.032 5.707.76 8.482.064.25.127.468.19.718.412 1.684.856 3.68.73 5.582v.094c0 .03-.032.062-.032.124-.064 1.03-.159 2.059-.476 2.932-.697.343-1.362.748-1.996 1.185-4.025 2.807-5.546 6.892-6.116 9.075-.032.094 0 .188.063.281.063.063.158.125.254.125h29.757a.29.29 0 00.253-.125.372.372 0 00.032-.312zm-8.746-10.54c-1.996-.874-4.214-1.31-6.433-1.31-2.186 0-4.341.436-6.306 1.278.19-.748.285-1.59.317-2.401h.158c.064 0 .127 0 .222.03h1.268c.158 0 .348-.03.507-.03.063 0 .127 0 .19-.032.127 0 .253-.03.38-.062.064 0 .127-.031.19-.031.159-.031.349-.063.507-.094h.032a12.387 12.387 0 001.838-.53c3.454-1.216 6.433-3.773 8.176-6.955.095-.155.19-.343.254-.499 0-.03.031-.062.031-.062 0-.031 0-.031.032-.062 0 0 0-.031.032-.031.19-.437.317-.905.158-1.373v-.062c-.19-.468-.602-.749-1.046-.904l-.095.467c-.316 1.03-1.045 1.747-1.743 1.747-.095 0-.19 0-.285-.031-.792-.219-1.14-1.341-.792-2.527.127-.467.38-.873.634-1.185l-.095-.28c-.095-.375.031-.78.285-1.092 0 0 0-.031.032-.031.126-.125.348-.343.697-.343.317 0 .634.187.982.374.38.218.824.468 1.363.437h.095c.19-.031.348-.063.507-.156.032-.031.063-.031.095-.063a1.78 1.78 0 00.634-.717c.063-.094.095-.187.127-.28 0-.032.031-.063.031-.094s.032-.094.032-.125v-.031c.254.624.539 1.247.792 1.715.476.842 1.11 1.684 1.933 2.495a.348.348 0 01.095.343c-.031.125-.126.218-.253.28l-.697.22c-.254.062-.412.342-.349.623.064.218.159.53.254.904.412 1.622.57 2.464.538 3.337-.063 1.186-.602 2.215-1.394 2.745-.444.28-.982.436-1.521.592a16.08 16.08 0 00-.634.188c-1.077.343-1.743.873-2.028 1.59-.285.655-.064 1.372.253 2.027z" fill="#111"/><path d="M23.58 17.396c-.474-.156-.855-.406-1.108-.718a2.8 2.8 0 00-.412.811c-.254.905-.032 1.622.348 1.747.38.093.983-.406 1.236-1.279a1.53 1.53 0 00.095-.499c-.063-.031-.095-.031-.158-.062z" fill="#111"/></g><defs><clipPath id="clip0"><path fill="#fff" transform="translate(1 5)" d="M0 0h32.874v38H0z"/></clipPath></defs></svg>