<svg xmlns="http://www.w3.org/2000/svg" width="36" height="20"><g data-name="Klarna Light"><rect width="34" height="18" x="1" y="1" fill="#fff" rx="2.32"/><path fill="#111" d="M32.68 1A2.32 2.32 0 0 1 35 3.32v13.36A2.32 2.32 0 0 1 32.68 19H3.32A2.32 2.32 0 0 1 1 16.68V3.32A2.32 2.32 0 0 1 3.32 1h29.36m0-1H3.32A3.32 3.32 0 0 0 0 3.32v13.36A3.32 3.32 0 0 0 3.32 20h29.36A3.32 3.32 0 0 0 36 16.68V3.32A3.32 3.32 0 0 0 32.68 0Z" opacity=".12"/><path d="M9.29 7H8a3.37 3.37 0 0 1-1.4 2.73l-.52.39 2 2.77h1.7l-1.87-2.55A4.69 4.69 0 0 0 9.29 7ZM4.56 7h1.35v5.89H4.56zm5.61 0h1.28v5.89h-1.28zm12.47 1.7a1.48 1.48 0 0 0-1.26.57v-.45h-1.21v4.07h1.23v-2.14a.85.85 0 0 1 .91-.92c.54 0 .84.32.84.91v2.15h1.22V10.3a1.61 1.61 0 0 0-1.73-1.6Zm-7.34.12v.26a2.1 2.1 0 0 0-1.21-.38 2.15 2.15 0 1 0 1.21 3.93v.26h1.22V8.82Zm-1.11 3.08a1 1 0 1 1 1.11-1.05 1.07 1.07 0 0 1-1.11 1.05Zm4.22-2.56v-.52h-1.25v4.07h1.25V11c0-.64.7-1 1.18-1V8.82a1.53 1.53 0 0 0-1.18.52Zm9.75-.52v.26A2.12 2.12 0 0 0 27 8.7a2.15 2.15 0 1 0 0 4.3 2.19 2.19 0 0 0 1.21-.37v.26h1.21V8.82Zm-1.11 3.08a1 1 0 1 1 1.1-1.05 1.07 1.07 0 0 1-1.1 1.05Zm3.27-2.97s0-.09-.11-.09h-.11v.31V9h.06l.05.11h.06L30.26 9a.08.08 0 0 0 .06-.07Zm-.11.07h-.06v-.11h.11s-.01.11-.05.11Z"/><path d="M30.19 8.71a.29.29 0 0 0-.29.29.3.3 0 0 0 .29.29.29.29 0 0 0 0-.58Zm0 .53A.23.23 0 0 1 30 9a.24.24 0 0 1 .23-.24.24.24 0 0 1 0 .48Zm.48 2.21a.76.76 0 0 0-.76.76.77.77 0 0 0 .76.77.78.78 0 0 0 .77-.77.76.76 0 0 0-.77-.76Z"/></g></svg>