<svg xmlns="http://www.w3.org/2000/svg" width="40" height="40" fill="none"><mask id="a" fill="#fff"><path fill-rule="evenodd" d="M34 0H0v34l6 6h34V6l-6-6Z" clip-rule="evenodd"/></mask><path fill="#E2F77E" fill-rule="evenodd" d="M34 0H0v34l6 6h34V6l-6-6Z" clip-rule="evenodd"/><path fill="#111" fill-opacity=".12" d="m34 0 .707-.707L34.414-1H34v1ZM0 0v-1h-1v1h1Zm0 34h-1v.414l.293.293L0 34Zm6 6-.707.707.293.293H6v-1Zm34 0v1h1v-1h-1Zm0-34h1v-.414l-.293-.293L40 6Zm-6-7H0v2h34v-2ZM-1 0v34h2V0h-2Zm.293 34.707 6 6 1.414-1.414-6-6-1.414 1.414ZM6 41h34v-2H6v2Zm35-1V6h-2v34h2Zm-.293-34.707-6-6L33.293.707l6 6 1.414-1.414Z" mask="url(#a)"/><g fill="#000" clip-path="url(#b)"><path d="M14.891 12.494h5.794c2.897 0 4.96 2.04 4.96 4.872 0 2.085-1.141 3.73-2.897 4.455l3.248 5.816h-2.83l-3.008-5.4h-2.743v5.4h-2.524V12.494Zm5.509 7.352c1.624 0 2.7-.966 2.7-2.48s-1.076-2.48-2.7-2.48h-2.985v4.96H20.4Z"/><path d="M9.58 29.622 8.1 28.144a.332.332 0 0 1-.097-.234L8.001 8.15a.14.14 0 0 1 .14-.14l19.76-.002a.33.33 0 0 1 .234.097l1.48 1.478a.084.084 0 0 1-.06.143L9.86 9.728a.14.14 0 0 0-.139.14l.002 19.694c0 .075-.09.113-.143.06ZM30.42 10.397l1.48 1.478a.332.332 0 0 1 .097.233L32 31.87a.14.14 0 0 1-.14.14l-19.76.001a.33.33 0 0 1-.234-.096l-1.48-1.479a.084.084 0 0 1 .06-.143l19.695-.002a.14.14 0 0 0 .14-.139l-.003-19.695c0-.075.09-.112.144-.06Z"/></g><defs><clipPath id="b"><path fill="#fff" d="M8 8h24v24H8z"/></clipPath></defs></svg>