<svg xmlns="http://www.w3.org/2000/svg" aria-hidden="true" fill="currentColor" height="24" viewBox="0 0 48 48" width="24" class="flex-shrink-0"><path d="M42.67 19.63h-.92c-2.35-.08-6.69-.54-8.25-2.16s-1.93-5.7-1.95-7.91v-.87a1 1 0 00-1-1 1 1 0 00-1 1v.9c-.07 2.34-.53 6.73-2.16 8.3-1.84 1.78-6.91 2-8.71 1.94a.9.9 0 00-.73.3 1 1 0 00-.31.74 1 1 0 00.3.71 1.12 1.12 0 00.71.29c1.94 0 7.34.32 9.12 2.17s2 6.91 1.94 8.71a1 1 0 001 1 1 1 0 00.95-.69 1.16 1.16 0 00.06-.38c0-1.93.33-7.33 2.17-9.11 1.61-1.56 5.65-1.92 7.85-1.95h.91a1 1 0 000-2Zm-10.18 2.5a7.72 7.72 0 00-1.77 3.12 7.21 7.21 0 00-1.52-2.64 7.7 7.7 0 00-3.14-1.78 7.29 7.29 0 002.71-1.55 7.53 7.53 0 001.76-3.09 7.46 7.46 0 001.53 2.66 7.62 7.62 0 003.07 1.75 7.55 7.55 0 00-2.64 1.53ZM24 33.93h-.65c-1.77-.06-4.34-.43-5.21-1.33s-1.19-3.33-1.21-5v-.62a1 1 0 00-1-1 1 1 0 00-1 1v.63c-.05 1.78-.42 4.38-1.33 5.25S9.62 34.09 8 34a1 1 0 00-.73.29 1.07 1.07 0 00-.3.74 1 1 0 00.3.71.94.94 0 00.71.29c1.78 0 4.84.32 5.82 1.34S15.05 41.34 15 43a1 1 0 001 1 1 1 0 00.94-.67.94.94 0 00.07-.37c0-1.73.33-4.84 1.34-5.82s3.3-1.18 5-1.2h.64a1 1 0 000-2Zm-7 1.75a4.63 4.63 0 00-1 1.44 4.45 4.45 0 00-.76-1.12 4.65 4.65 0 00-1.44-1 4.42 4.42 0 001.14-.78 4.48 4.48 0 001-1.41 4.45 4.45 0 00.72 1.19 4.71 4.71 0 001.4.94 4.64 4.64 0 00-1.06.74ZM12 21a1 1 0 001 1 1 1 0 00.94-.67 1 1 0 00.07-.38c0-1.73.33-4.84 1.34-5.82s3.31-1.18 5-1.2H21a1 1 0 000-2h-.65c-1.77-.05-4.34-.42-5.21-1.33s-1.19-3.33-1.21-5v-.61a1 1 0 00-2 0v.64c0 1.77-.42 4.37-1.33 5.25s-3.93 1.28-5.55 1.22a1 1 0 00-.73.3 1 1 0 00-.3.73 1 1 0 001 1H5c1.76 0 4.84.33 5.82 1.34S12.1 19.41 12 21Zm0-8.67a4.65 4.65 0 00.95-1.42 4.28 4.28 0 00.77 1.12 4.36 4.36 0 001.4.94 4.64 4.64 0 00-1.11.76 4.63 4.63 0 00-.95 1.44 4.64 4.64 0 00-.76-1.11 4.63 4.63 0 00-1.44-.95 4.69 4.69 0 001.14-.76Z"/></svg>